<mxfile host="app.diagrams.net" modified="2023-05-17T10:59:18.315Z" agent="Mozilla/5.0 (Windows NT 10.0; Win64; x64) AppleWebKit/537.36 (KHTML, like Gecko) Chrome/113.0.0.0 Safari/537.36" etag="nnWHE6vyYrUEqgvepu3V" version="21.3.2" type="device">
  <diagram id="UPBxKQlSDfRidwroR9z1" name="Page-1">
    <mxGraphModel dx="1434" dy="796" grid="1" gridSize="10" guides="1" tooltips="1" connect="1" arrows="1" fold="1" page="1" pageScale="1" pageWidth="2339" pageHeight="3300" math="0" shadow="0">
      <root>
        <mxCell id="0" />
        <mxCell id="1" parent="0" />
        <mxCell id="Kwo-UNK6BBps3imCC4q6-14" style="edgeStyle=orthogonalEdgeStyle;rounded=0;orthogonalLoop=1;jettySize=auto;html=1;exitX=0.5;exitY=1;exitDx=0;exitDy=0;entryX=0.615;entryY=0;entryDx=0;entryDy=0;entryPerimeter=0;fontSize=12;" parent="1" source="Kwo-UNK6BBps3imCC4q6-3" target="Kwo-UNK6BBps3imCC4q6-4" edge="1">
          <mxGeometry relative="1" as="geometry" />
        </mxCell>
        <mxCell id="Kwo-UNK6BBps3imCC4q6-3" value="Start" style="ellipse;whiteSpace=wrap;html=1;fontSize=14;" parent="1" vertex="1">
          <mxGeometry x="510" y="10" width="100" height="60" as="geometry" />
        </mxCell>
        <mxCell id="Kwo-UNK6BBps3imCC4q6-10" style="edgeStyle=orthogonalEdgeStyle;rounded=0;orthogonalLoop=1;jettySize=auto;html=1;exitX=0.5;exitY=1;exitDx=0;exitDy=0;entryX=0.4;entryY=-0.025;entryDx=0;entryDy=0;entryPerimeter=0;fontSize=14;" parent="1" source="Kwo-UNK6BBps3imCC4q6-4" target="Kwo-UNK6BBps3imCC4q6-5" edge="1">
          <mxGeometry relative="1" as="geometry" />
        </mxCell>
        <mxCell id="Kwo-UNK6BBps3imCC4q6-4" value="licz1&lt;br&gt;licz2" style="shape=parallelogram;perimeter=parallelogramPerimeter;whiteSpace=wrap;html=1;fixedSize=1;fontSize=14;size=30;" parent="1" vertex="1">
          <mxGeometry x="487.5" y="100" width="130" height="60" as="geometry" />
        </mxCell>
        <mxCell id="Kwo-UNK6BBps3imCC4q6-39" style="edgeStyle=orthogonalEdgeStyle;rounded=0;orthogonalLoop=1;jettySize=auto;html=1;exitX=0.5;exitY=1;exitDx=0;exitDy=0;fontSize=12;" parent="1" source="Kwo-UNK6BBps3imCC4q6-5" target="Kwo-UNK6BBps3imCC4q6-37" edge="1">
          <mxGeometry relative="1" as="geometry" />
        </mxCell>
        <mxCell id="Kwo-UNK6BBps3imCC4q6-5" value="wyn = 0&lt;br&gt;" style="rounded=0;whiteSpace=wrap;html=1;fontSize=14;" parent="1" vertex="1">
          <mxGeometry x="515" y="180" width="90" height="30" as="geometry" />
        </mxCell>
        <mxCell id="Kwo-UNK6BBps3imCC4q6-25" value="tak" style="edgeStyle=orthogonalEdgeStyle;rounded=0;orthogonalLoop=1;jettySize=auto;html=1;exitX=0.5;exitY=1;exitDx=0;exitDy=0;fontSize=12;entryX=0.5;entryY=0;entryDx=0;entryDy=0;" parent="1" source="Kwo-UNK6BBps3imCC4q6-12" target="Kwo-UNK6BBps3imCC4q6-26" edge="1">
          <mxGeometry relative="1" as="geometry">
            <mxPoint x="560" y="740" as="targetPoint" />
          </mxGeometry>
        </mxCell>
        <mxCell id="Kwo-UNK6BBps3imCC4q6-41" value="nie" style="edgeStyle=orthogonalEdgeStyle;rounded=0;orthogonalLoop=1;jettySize=auto;html=1;exitX=1;exitY=0.5;exitDx=0;exitDy=0;entryX=0.13;entryY=0.77;entryDx=0;entryDy=0;entryPerimeter=0;fontSize=12;" parent="1" source="Kwo-UNK6BBps3imCC4q6-12" target="Kwo-UNK6BBps3imCC4q6-40" edge="1">
          <mxGeometry relative="1" as="geometry" />
        </mxCell>
        <mxCell id="Kwo-UNK6BBps3imCC4q6-12" value="&lt;font style=&quot;font-size: 12px;&quot;&gt;ostatnia &lt;br&gt;cyfra licz2 = 1?&lt;/font&gt;" style="rhombus;whiteSpace=wrap;html=1;fontSize=12;" parent="1" vertex="1">
          <mxGeometry x="497.5" y="620" width="120" height="110" as="geometry" />
        </mxCell>
        <mxCell id="Kwo-UNK6BBps3imCC4q6-16" value="tak" style="edgeStyle=orthogonalEdgeStyle;rounded=0;orthogonalLoop=1;jettySize=auto;html=1;exitX=0.5;exitY=1;exitDx=0;exitDy=0;entryX=0.5;entryY=0;entryDx=0;entryDy=0;fontSize=12;" parent="1" source="Kwo-UNK6BBps3imCC4q6-13" target="Kwo-UNK6BBps3imCC4q6-12" edge="1">
          <mxGeometry relative="1" as="geometry" />
        </mxCell>
        <mxCell id="Kwo-UNK6BBps3imCC4q6-32" value="nie" style="edgeStyle=orthogonalEdgeStyle;rounded=0;orthogonalLoop=1;jettySize=auto;html=1;exitX=0;exitY=0.5;exitDx=0;exitDy=0;fontSize=12;" parent="1" source="Kwo-UNK6BBps3imCC4q6-13" edge="1">
          <mxGeometry relative="1" as="geometry">
            <mxPoint x="390" y="380" as="targetPoint" />
          </mxGeometry>
        </mxCell>
        <mxCell id="Kwo-UNK6BBps3imCC4q6-13" value="liczba 2 &amp;gt; 0" style="rhombus;whiteSpace=wrap;html=1;fontSize=12;" parent="1" vertex="1">
          <mxGeometry x="495" y="330" width="125" height="100" as="geometry" />
        </mxCell>
        <mxCell id="Kwo-UNK6BBps3imCC4q6-23" style="edgeStyle=orthogonalEdgeStyle;rounded=0;orthogonalLoop=1;jettySize=auto;html=1;exitX=0.5;exitY=0;exitDx=0;exitDy=0;entryX=0.5;entryY=1;entryDx=0;entryDy=0;fontSize=12;" parent="1" source="Kwo-UNK6BBps3imCC4q6-17" target="Kwo-UNK6BBps3imCC4q6-22" edge="1">
          <mxGeometry relative="1" as="geometry" />
        </mxCell>
        <mxCell id="Kwo-UNK6BBps3imCC4q6-17" value="przesuń licz2 w prawo o jedno miejsce (podziel)" style="rounded=0;whiteSpace=wrap;html=1;fontSize=12;" parent="1" vertex="1">
          <mxGeometry x="637.5" y="515" width="115" height="60" as="geometry" />
        </mxCell>
        <mxCell id="Kwo-UNK6BBps3imCC4q6-48" style="edgeStyle=orthogonalEdgeStyle;rounded=0;orthogonalLoop=1;jettySize=auto;html=1;exitX=0.5;exitY=0;exitDx=0;exitDy=0;entryX=0.5;entryY=1;entryDx=0;entryDy=0;fontSize=12;" parent="1" source="Kwo-UNK6BBps3imCC4q6-22" target="Kwo-UNK6BBps3imCC4q6-47" edge="1">
          <mxGeometry relative="1" as="geometry" />
        </mxCell>
        <mxCell id="Kwo-UNK6BBps3imCC4q6-22" value="&lt;font style=&quot;font-size: 12px;&quot;&gt;przesuń licz1 w lewo o jedno miejsce (pomnóż)&lt;/font&gt;" style="rounded=0;whiteSpace=wrap;html=1;fontSize=14;" parent="1" vertex="1">
          <mxGeometry x="635" y="440" width="120" height="60" as="geometry" />
        </mxCell>
        <mxCell id="S83-N7THknJquKV0cwzw-4" style="edgeStyle=orthogonalEdgeStyle;rounded=0;orthogonalLoop=1;jettySize=auto;html=1;exitX=1;exitY=0.5;exitDx=0;exitDy=0;entryX=0;entryY=0.5;entryDx=0;entryDy=0;" edge="1" parent="1" source="Kwo-UNK6BBps3imCC4q6-26" target="S83-N7THknJquKV0cwzw-1">
          <mxGeometry relative="1" as="geometry" />
        </mxCell>
        <mxCell id="Kwo-UNK6BBps3imCC4q6-26" value="do &lt;i&gt;wyn&lt;/i&gt;&amp;nbsp;dodaj &lt;i&gt;licz1&lt;/i&gt;" style="rounded=0;whiteSpace=wrap;html=1;fontSize=12;" parent="1" vertex="1">
          <mxGeometry x="487.5" y="780" width="150" height="40" as="geometry" />
        </mxCell>
        <mxCell id="Kwo-UNK6BBps3imCC4q6-30" value="Przesuwam licz2 w prawo żeby iterować dla każdej cyfry w licz2 (kiedy licz2 dojdzie do zera koniec programu)&amp;nbsp;" style="text;html=1;strokeColor=none;fillColor=none;align=center;verticalAlign=middle;whiteSpace=wrap;rounded=0;fontSize=12;" parent="1" vertex="1">
          <mxGeometry x="755" y="477.5" width="100" height="135" as="geometry" />
        </mxCell>
        <mxCell id="Kwo-UNK6BBps3imCC4q6-46" style="edgeStyle=orthogonalEdgeStyle;rounded=0;orthogonalLoop=1;jettySize=auto;html=1;exitX=0;exitY=0.5;exitDx=0;exitDy=0;entryX=1;entryY=0.5;entryDx=0;entryDy=0;fontSize=12;" parent="1" source="Kwo-UNK6BBps3imCC4q6-31" target="Kwo-UNK6BBps3imCC4q6-33" edge="1">
          <mxGeometry relative="1" as="geometry" />
        </mxCell>
        <mxCell id="Kwo-UNK6BBps3imCC4q6-31" value="&amp;nbsp;wyświetlanie wyniku" style="rounded=0;whiteSpace=wrap;html=1;fontSize=12;" parent="1" vertex="1">
          <mxGeometry x="180" y="350" width="110" height="65" as="geometry" />
        </mxCell>
        <mxCell id="Kwo-UNK6BBps3imCC4q6-33" value="Koniec" style="ellipse;whiteSpace=wrap;html=1;fontSize=12;" parent="1" vertex="1">
          <mxGeometry x="30" y="357.5" width="90" height="50" as="geometry" />
        </mxCell>
        <mxCell id="Kwo-UNK6BBps3imCC4q6-38" style="edgeStyle=orthogonalEdgeStyle;rounded=0;orthogonalLoop=1;jettySize=auto;html=1;exitX=0.55;exitY=0.95;exitDx=0;exitDy=0;exitPerimeter=0;entryX=0.5;entryY=0;entryDx=0;entryDy=0;fontSize=12;" parent="1" source="Kwo-UNK6BBps3imCC4q6-37" target="Kwo-UNK6BBps3imCC4q6-13" edge="1">
          <mxGeometry relative="1" as="geometry" />
        </mxCell>
        <mxCell id="Kwo-UNK6BBps3imCC4q6-37" value="petla" style="ellipse;shape=cloud;whiteSpace=wrap;html=1;fontSize=12;" parent="1" vertex="1">
          <mxGeometry x="520" y="260" width="80" height="50" as="geometry" />
        </mxCell>
        <mxCell id="Kwo-UNK6BBps3imCC4q6-43" style="edgeStyle=orthogonalEdgeStyle;rounded=0;orthogonalLoop=1;jettySize=auto;html=1;exitX=0.625;exitY=0.2;exitDx=0;exitDy=0;exitPerimeter=0;entryX=0.639;entryY=1;entryDx=0;entryDy=0;entryPerimeter=0;fontSize=12;" parent="1" source="Kwo-UNK6BBps3imCC4q6-40" target="Kwo-UNK6BBps3imCC4q6-17" edge="1">
          <mxGeometry relative="1" as="geometry" />
        </mxCell>
        <mxCell id="Kwo-UNK6BBps3imCC4q6-40" value="przesun" style="ellipse;shape=cloud;whiteSpace=wrap;html=1;fontSize=12;" parent="1" vertex="1">
          <mxGeometry x="655" y="630" width="90" height="60" as="geometry" />
        </mxCell>
        <mxCell id="Kwo-UNK6BBps3imCC4q6-45" style="edgeStyle=orthogonalEdgeStyle;rounded=0;orthogonalLoop=1;jettySize=auto;html=1;exitX=0.16;exitY=0.55;exitDx=0;exitDy=0;exitPerimeter=0;entryX=1;entryY=0.5;entryDx=0;entryDy=0;fontSize=12;" parent="1" source="Kwo-UNK6BBps3imCC4q6-44" target="Kwo-UNK6BBps3imCC4q6-31" edge="1">
          <mxGeometry relative="1" as="geometry" />
        </mxCell>
        <mxCell id="Kwo-UNK6BBps3imCC4q6-44" value="end" style="ellipse;shape=cloud;whiteSpace=wrap;html=1;fontSize=12;" parent="1" vertex="1">
          <mxGeometry x="320" y="350" width="80" height="60" as="geometry" />
        </mxCell>
        <mxCell id="Kwo-UNK6BBps3imCC4q6-52" value="tak" style="edgeStyle=orthogonalEdgeStyle;rounded=0;orthogonalLoop=1;jettySize=auto;html=1;exitX=1;exitY=0.5;exitDx=0;exitDy=0;entryX=0.16;entryY=0.55;entryDx=0;entryDy=0;entryPerimeter=0;fontSize=12;" parent="1" source="Kwo-UNK6BBps3imCC4q6-47" target="Kwo-UNK6BBps3imCC4q6-51" edge="1">
          <mxGeometry relative="1" as="geometry" />
        </mxCell>
        <mxCell id="Kwo-UNK6BBps3imCC4q6-67" style="edgeStyle=orthogonalEdgeStyle;rounded=0;orthogonalLoop=1;jettySize=auto;html=1;exitX=0.5;exitY=0;exitDx=0;exitDy=0;entryX=0.8;entryY=0.8;entryDx=0;entryDy=0;entryPerimeter=0;fontSize=12;" parent="1" source="Kwo-UNK6BBps3imCC4q6-47" target="Kwo-UNK6BBps3imCC4q6-37" edge="1">
          <mxGeometry relative="1" as="geometry">
            <Array as="points">
              <mxPoint x="695" y="330" />
              <mxPoint x="584" y="330" />
            </Array>
          </mxGeometry>
        </mxCell>
        <mxCell id="Kwo-UNK6BBps3imCC4q6-68" value="nie" style="edgeLabel;html=1;align=center;verticalAlign=middle;resizable=0;points=[];fontSize=12;" parent="Kwo-UNK6BBps3imCC4q6-67" vertex="1" connectable="0">
          <mxGeometry x="0.0066" y="1" relative="1" as="geometry">
            <mxPoint as="offset" />
          </mxGeometry>
        </mxCell>
        <mxCell id="Kwo-UNK6BBps3imCC4q6-47" value="wynik ujemny?" style="rhombus;whiteSpace=wrap;html=1;fontSize=12;" parent="1" vertex="1">
          <mxGeometry x="655" y="340" width="80" height="80" as="geometry" />
        </mxCell>
        <mxCell id="Kwo-UNK6BBps3imCC4q6-59" style="edgeStyle=orthogonalEdgeStyle;rounded=0;orthogonalLoop=1;jettySize=auto;html=1;exitX=0.875;exitY=0.5;exitDx=0;exitDy=0;exitPerimeter=0;entryX=0;entryY=0.5;entryDx=0;entryDy=0;fontSize=12;" parent="1" source="Kwo-UNK6BBps3imCC4q6-51" target="Kwo-UNK6BBps3imCC4q6-57" edge="1">
          <mxGeometry relative="1" as="geometry" />
        </mxCell>
        <mxCell id="Kwo-UNK6BBps3imCC4q6-51" value="overflow" style="ellipse;shape=cloud;whiteSpace=wrap;html=1;fontSize=12;" parent="1" vertex="1">
          <mxGeometry x="815" y="350" width="80" height="57.5" as="geometry" />
        </mxCell>
        <mxCell id="Kwo-UNK6BBps3imCC4q6-61" style="edgeStyle=orthogonalEdgeStyle;rounded=0;orthogonalLoop=1;jettySize=auto;html=1;exitX=1;exitY=0.5;exitDx=0;exitDy=0;entryX=0;entryY=0.5;entryDx=0;entryDy=0;fontSize=12;" parent="1" source="Kwo-UNK6BBps3imCC4q6-57" target="Kwo-UNK6BBps3imCC4q6-60" edge="1">
          <mxGeometry relative="1" as="geometry" />
        </mxCell>
        <mxCell id="Kwo-UNK6BBps3imCC4q6-57" value="wyświetlenie komunikatu o overflow" style="rounded=0;whiteSpace=wrap;html=1;fontSize=12;" parent="1" vertex="1">
          <mxGeometry x="940" y="346.25" width="110" height="65" as="geometry" />
        </mxCell>
        <mxCell id="Kwo-UNK6BBps3imCC4q6-60" value="Koniec" style="ellipse;whiteSpace=wrap;html=1;fontSize=12;" parent="1" vertex="1">
          <mxGeometry x="1080" y="353.75" width="90" height="50" as="geometry" />
        </mxCell>
        <mxCell id="S83-N7THknJquKV0cwzw-5" value="nie" style="edgeStyle=orthogonalEdgeStyle;rounded=0;orthogonalLoop=1;jettySize=auto;html=1;exitX=0.5;exitY=0;exitDx=0;exitDy=0;entryX=0.55;entryY=0.95;entryDx=0;entryDy=0;entryPerimeter=0;" edge="1" parent="1" source="S83-N7THknJquKV0cwzw-1" target="Kwo-UNK6BBps3imCC4q6-40">
          <mxGeometry relative="1" as="geometry" />
        </mxCell>
        <mxCell id="S83-N7THknJquKV0cwzw-6" style="edgeStyle=orthogonalEdgeStyle;rounded=0;orthogonalLoop=1;jettySize=auto;html=1;exitX=1;exitY=0.5;exitDx=0;exitDy=0;entryX=0.55;entryY=0.95;entryDx=0;entryDy=0;entryPerimeter=0;" edge="1" parent="1" source="S83-N7THknJquKV0cwzw-1" target="Kwo-UNK6BBps3imCC4q6-51">
          <mxGeometry relative="1" as="geometry" />
        </mxCell>
        <mxCell id="S83-N7THknJquKV0cwzw-8" value="tak" style="edgeLabel;html=1;align=center;verticalAlign=middle;resizable=0;points=[];" vertex="1" connectable="0" parent="S83-N7THknJquKV0cwzw-6">
          <mxGeometry x="-0.8233" y="-3" relative="1" as="geometry">
            <mxPoint as="offset" />
          </mxGeometry>
        </mxCell>
        <mxCell id="S83-N7THknJquKV0cwzw-1" value="wynik ujemny?" style="rhombus;whiteSpace=wrap;html=1;fontSize=12;" vertex="1" parent="1">
          <mxGeometry x="665" y="760" width="80" height="80" as="geometry" />
        </mxCell>
      </root>
    </mxGraphModel>
  </diagram>
</mxfile>
